<?xml version="1.0" encoding="iso-8859-1"?>
<!-- Generator: Adobe Illustrator 21.0.0, SVG Export Plug-In . SVG Version: 6.00 Build 0)  -->
<svg version="1.1" id="&#x5706;&#x89D2;_1_" xmlns="http://www.w3.org/2000/svg" xmlns:xlink="http://www.w3.org/1999/xlink"
	 x="0px" y="0px" viewBox="0 0 17 27" style="enable-background:new 0 0 17 27;" xml:space="preserve">
<g id="&#x5706;&#x89D2;">
	<g>
		<path style="fill-rule:evenodd;clip-rule:evenodd;fill:#FFFFFF;" d="M8.5,0C3.806,0,0,3.828,0,8.549v9.899
			c0,4.722,3.806,8.549,8.5,8.549c4.695,0,8.5-3.828,8.5-8.549V8.549C17,3.828,13.195,0,8.5,0z M15,18.607
			c0,3.611-2.91,6.538-6.5,6.538c-3.59,0-6.5-2.927-6.5-6.538V8.549c0-3.611,2.91-6.538,6.5-6.538c3.59,0,6.5,2.927,6.5,6.538
			V18.607z M8.5,5.029C7.672,5.029,7,5.705,7,6.538v5.029c0,0.833,0.672,1.509,1.5,1.509S10,12.4,10,11.567V6.538
			C10,5.705,9.328,5.029,8.5,5.029z"/>
	</g>
</g>
</svg>
